<?xml version="1.0" encoding="UTF-8" standalone="no"?>
<!-- Created with Inkscape (http://www.inkscape.org/) -->

<svg
   width="139.69025"
   height="213.66898"
   viewBox="0 0 139.69025 213.66898"
   version="1.1"
   id="svg1"
   xml:space="preserve"
   sodipodi:docname="flechaArriba.svg"
   inkscape:version="1.3.2 (091e20e, 2023-11-25, custom)"
   xmlns:inkscape="http://www.inkscape.org/namespaces/inkscape"
   xmlns:sodipodi="http://sodipodi.sourceforge.net/DTD/sodipodi-0.dtd"
   xmlns="http://www.w3.org/2000/svg"
   xmlns:svg="http://www.w3.org/2000/svg"><sodipodi:namedview
     id="namedview1"
     pagecolor="#505050"
     bordercolor="#ffffff"
     borderopacity="1"
     inkscape:showpageshadow="0"
     inkscape:pageopacity="0"
     inkscape:pagecheckerboard="1"
     inkscape:deskcolor="#505050"
     inkscape:document-units="px"
     inkscape:zoom="1.5878906"
     inkscape:cx="67.384996"
     inkscape:cy="166.57319"
     inkscape:window-width="1920"
     inkscape:window-height="1009"
     inkscape:window-x="1912"
     inkscape:window-y="1072"
     inkscape:window-maximized="1"
     inkscape:current-layer="svg1" /><defs
     id="defs1"><inkscape:path-effect
       effect="fillet_chamfer"
       id="path-effect19"
       is_visible="true"
       lpeversion="1"
       nodesatellites_param="F,0,0,1,0,0,0,1 @ F,0,0,1,0,0,0,1 @ F,0,0,1,0,0,0,1 @ F,0,0,1,0,0,0,1 @ F,0,0,1,0,0,0,1"
       radius="0"
       unit="px"
       method="auto"
       mode="F"
       chamfer_steps="1"
       flexible="false"
       use_knot_distance="true"
       apply_no_radius="true"
       apply_with_radius="true"
       only_selected="false"
       hide_knots="false" /><inkscape:path-effect
       effect="fillet_chamfer"
       id="path-effect8"
       is_visible="true"
       lpeversion="1"
       nodesatellites_param="F,0,0,1,0,0,0,1 @ F,0,0,1,0,19.356714,0,1 @ F,0,0,1,0,0,0,1"
       radius="0"
       unit="px"
       method="auto"
       mode="F"
       chamfer_steps="1"
       flexible="false"
       use_knot_distance="true"
       apply_no_radius="true"
       apply_with_radius="true"
       only_selected="false"
       hide_knots="false" /><inkscape:path-effect
       effect="fillet_chamfer"
       id="path-effect2"
       is_visible="true"
       lpeversion="1"
       nodesatellites_param="F,0,1,1,0,20.174538,0,1 @ F,0,1,1,0,20.174538,0,1 @ F,0,1,1,0,20.174538,0,1 @ F,0,0,1,0,20.174538,0,1"
       radius="0"
       unit="px"
       method="auto"
       mode="F"
       chamfer_steps="1"
       flexible="false"
       use_knot_distance="true"
       apply_no_radius="true"
       apply_with_radius="true"
       only_selected="false"
       hide_knots="false" /><inkscape:path-effect
       effect="fillet_chamfer"
       id="path-effect1"
       nodesatellites_param="F,0,0,1,0,0,0,1 @ F,0,0,1,0,0,0,1 @ F,0,0,1,0,0,0,1 @ F,0,0,1,0,0,0,1"
       is_visible="true"
       lpeversion="1"
       radius="0"
       unit="px"
       method="auto"
       mode="F"
       chamfer_steps="1"
       flexible="false"
       use_knot_distance="true"
       apply_no_radius="true"
       apply_with_radius="true"
       only_selected="false"
       hide_knots="false" /><filter
       style="color-interpolation-filters:sRGB"
       inkscape:label="Blur"
       id="filter149"
       x="-0.032430623"
       y="-0.062354106"
       width="1.0648612"
       height="1.1247082"><feGaussianBlur
         stdDeviation="3 2.77046"
         result="blur"
         id="feGaussianBlur149" /></filter><clipPath
       clipPathUnits="userSpaceOnUse"
       id="clipPath40"><path
         id="path41"
         style="fill:#ff0000;fill-opacity:1;fill-rule:nonzero;stroke:none;stroke-width:1.0292"
         d="m 365.75285,126.94158 v 79.40986 H 146.68086 V 126.94158 Z M 251.38462,161.7721 c -0.50754,-0.018 -0.83634,0.31664 -0.76037,0.74786 -0.0825,0.0485 -0.16548,0.10474 -0.24992,0.1717 -0.44523,0.35301 -0.89056,0.70654 -1.34705,1.04738 -0.53052,0.37178 -1.0676,0.73616 -1.60122,1.10461 -1.25285,-0.64564 -2.17292,-1.08102 -2.76188,-1.07218 -0.80624,0.0121 -1.00402,0.90458 -0.74978,3.06773 -1.03756,0.23434 -1.88649,0.97903 -2.33616,2.21685 -0.30735,0.23701 -0.60743,0.48169 -0.91074,0.72305 -1.57379,0.31026 -2.70314,1.40493 -2.96098,2.90747 -0.46854,0.5813 -0.89754,1.18647 -1.18609,1.8601 -0.30935,0.81059 -0.54191,1.6432 -0.26051,2.49157 0.19372,0.58837 0.47547,1.13592 0.88321,1.63116 0.43047,0.56198 0.88596,1.1072 1.30681,1.67504 0.45829,0.58546 0.87759,1.19679 1.40212,1.738 0.56651,0.59459 1.15218,1.17921 1.84902,1.65405 0.71339,0.49308 1.49817,0.88486 2.30863,1.23434 0.87491,0.37779 1.76647,0.722 2.68988,0.99396 1.07445,0.31752 2.15808,0.61136 3.2702,0.80318 0.88949,0.13878 1.5793,0.23061 2.39547,-0.18124 0.51854,-0.25157 1.03147,-0.52053 1.47625,-0.87186 0.42583,-0.37696 0.81962,-0.77673 1.13737,-1.23434 0.56696,-0.77398 1.14987,-1.53707 1.73677,-2.29889 0.89934,-1.18491 1.81996,-2.35736 2.82543,-3.47217 1.10779,-1.28595 2.24994,-2.54761 3.34221,-3.8442 0.74304,-0.9526 1.74922,-2.15891 1.65205,-3.39587 -0.0168,-0.21371 -0.10627,-0.41681 -0.15886,-0.62575 -0.10323,-0.16281 -0.18978,-0.33486 -0.30922,-0.4884 -0.17682,-0.22728 -0.55621,-0.55342 -0.77731,-0.74022 -0.56165,-0.47452 -1.15445,-0.91609 -1.73465,-1.3717 -1.76957,-1.29752 -3.62222,-2.49439 -5.50471,-3.65533 -1.27207,-0.79318 -2.55721,-1.58117 -3.75735,-2.46105 -0.32764,-0.24026 -0.64234,-0.34542 -0.90862,-0.35485 z m 0.31982,1.89253 c 0.37432,0.26321 0.7724,0.49783 1.15643,0.74976 -0.0371,0.19937 -0.023,0.43862 0.0656,0.71352 0.11175,0.3464 0.17754,0.70355 0.26051,1.05691 -0.72089,-0.25266 -1.40489,-0.37926 -2.03329,-0.38537 -0.52269,-0.005 -0.99964,0.078 -1.436,0.2194 -0.22915,-0.11522 -0.47169,-0.2351 -0.68624,-0.34531 0.34609,-0.24114 0.69647,-0.47728 1.04206,-0.71924 0.48501,-0.3578 0.95377,-0.7344 1.42542,-1.10652 0.0771,-0.0608 0.14556,-0.12172 0.20544,-0.18315 z m 3.13889,2.03561 c 0.0794,0.0495 0.15577,0.10313 0.23509,0.15263 1.8454,1.13899 3.6642,2.30988 5.39881,3.58283 0.55611,0.43801 1.12608,0.86253 1.66476,1.31828 0.31384,0.26561 0.55792,0.44793 0.72435,0.80509 -0.12136,0.9129 -0.80703,1.69256 -1.37882,2.41908 -0.61053,0.72152 -1.23872,1.43091 -1.86386,2.14245 0.41478,-0.81817 0.54081,-1.84836 0.26476,-3.01813 0.32354,0.0206 0.65205,-0.10011 0.96158,-0.60668 0.16537,-0.27067 -0.25132,-0.57485 -0.37701,-0.86232 -0.51565,-0.48952 -1.05968,-1.10322 -1.79395,-1.34117 -0.0206,-0.0222 -0.0415,-0.0441 -0.0614,-0.0668 -0.1536,-0.17972 -0.30617,-0.35605 -0.52315,-0.61812 -0.0401,-0.0485 -0.0787,-0.0983 -0.11861,-0.1469 -0.20576,-0.49377 -0.59446,-1.06081 -1.17761,-1.74372 -0.11073,-0.12101 -0.94055,-1.05084 -1.03359,-1.0283 -0.21981,0.0532 -0.44395,0.10248 -0.66717,0.15262 -0.0821,-0.38054 -0.16216,-0.76176 -0.25415,-1.14086 z m 0.60151,1.31829 c 0.21911,-0.025 0.62084,0.31474 0.75613,0.43116 0.0965,0.1127 0.16021,0.18801 0.24145,0.28235 -0.0984,0.0516 -0.18912,0.0932 -0.28593,0.14309 -0.32948,-0.26085 -0.65747,-0.50168 -0.98064,-0.7097 0.0736,-0.0452 0.13673,-0.0813 0.21181,-0.12782 0.0173,-0.0107 0.0353,-0.0166 0.0571,-0.0191 z m -17.3846,8.25501 c 0.40739,0.98804 1.13248,2.03706 2.25143,3.0868 0.536,0.50285 1.11347,0.96696 1.69229,1.42894 0.5383,0.43218 0.25601,0.20596 0.84932,0.67345 0.49315,0.38857 0.98041,0.70944 1.46143,0.98632 0.22459,0.17687 0.45232,0.35127 0.68199,0.52274 4.50033,3.35977 8.56883,2.06767 9.28535,-0.66964 1.30113,-0.46912 2.29478,-1.60345 2.52678,-3.25659 0.62637,-0.0941 1.20694,-0.29197 1.68594,-0.62576 -0.10063,0.11595 -0.20269,0.23094 -0.30287,0.34722 -1.02643,1.13919 -1.96589,2.33621 -2.88473,3.54658 -0.59249,0.76846 -1.18129,1.53915 -1.75371,2.31987 -0.2513,0.36685 -0.56446,0.68186 -0.90651,0.98061 -0.33721,0.24066 -0.71,0.43622 -1.08865,0.61812 -0.44535,0.2289 -0.80438,0.10202 -1.29199,0.0229 -1.03154,-0.18061 -2.03809,-0.45434 -3.03511,-0.74976 -0.85326,-0.25113 -1.67404,-0.57228 -2.4823,-0.92147 -0.69535,-0.30885 -1.39121,-0.62674 -2.00152,-1.06073 -0.60546,-0.412 -1.10772,-0.92592 -1.59909,-1.44229 -0.4862,-0.50629 -0.87579,-1.0758 -1.30258,-1.62161 -0.41711,-0.56383 -0.87176,-1.1057 -1.29834,-1.6636 -0.3002,-0.36155 -0.51198,-0.75348 -0.64599,-1.18665 -0.14532,-0.45789 -0.007,-0.90074 0.15886,-1.33545 z" /></clipPath><clipPath
       clipPathUnits="userSpaceOnUse"
       id="clipPath43"><path
         id="path43"
         style="fill:#ff0000;fill-opacity:1;fill-rule:nonzero;stroke:none;stroke-width:1.0292"
         d="m 331.37618,133.41151 v 71.41622 H 169.5243 v -71.41622 z m -79.33849,34.43561 c -1.43551,-0.0696 -3.19792,0.44184 -5.04299,1.79142 -0.89153,0.65212 -1.79394,1.29321 -2.6835,1.94785 -0.85486,0.60175 -1.70098,1.21261 -2.51197,1.862 -0.64184,0.51767 -1.19306,1.11919 -1.76218,1.69985 -0.27939,0.23578 -0.57177,0.48023 -0.84932,0.73068 -0.49647,0.41608 -0.87697,0.92323 -1.3047,1.39269 -7.90642,0.22156 -7.8389,7.58568 0.42573,7.68076 0.26124,0.003 0.5225,0.006 0.78366,-0.004 1.23379,-0.076 2.3558,-0.37159 3.3634,-1.03784 0.70885,-0.49359 1.36507,-1.04253 1.94009,-1.66359 0.28241,-0.31223 0.5377,-0.64447 0.83874,-0.94054 0.39958,-0.36252 0.83864,-0.68955 1.20937,-1.0779 0.34406,-0.35336 0.68135,-0.72178 1.03783,-1.04357 0.71526,-0.57842 1.47831,-1.10584 2.23026,-1.64451 0.94157,-0.69292 1.89976,-1.36799 2.83813,-2.06423 4.68827,-3.47858 3.15596,-7.45129 -0.51255,-7.62925 z m -14.62909,9.86519 c -0.0187,0.0163 -0.0379,0.0321 -0.0572,0.0477 -0.0119,0.01 -0.0479,0.0382 -0.0382,0.0267 0.0175,-0.021 0.0424,-0.0372 0.0636,-0.0553 0.01,-0.007 0.0217,-0.012 0.0318,-0.0191 z" /></clipPath></defs><rect
     style="fill:#ffffff;fill-opacity:1;stroke:#ffffff;stroke-width:9.44882;stroke-linecap:round;stroke-linejoin:round;paint-order:stroke fill markers"
     id="rect1"
     width="43.640579"
     height="89.953033"
     x="48.024811"
     y="118.99153" /><path
     sodipodi:type="star"
     style="fill:#ffffff;fill-opacity:1;stroke:#ffffff;stroke-width:9.44882;stroke-linecap:round;stroke-linejoin:round;paint-order:stroke fill markers"
     id="path1"
     inkscape:flatsided="true"
     sodipodi:sides="3"
     sodipodi:cx="504.53854"
     sodipodi:cy="43.195267"
     sodipodi:r1="75.079659"
     sodipodi:r2="37.539829"
     sodipodi:arg1="0.52359878"
     sodipodi:arg2="1.5707963"
     inkscape:rounded="0.02"
     inkscape:randomized="0"
     d="m 569.55944,80.735096 c -1.30042,2.25239 -128.74137,2.252389 -130.04179,0 -1.30042,-2.25239 62.42006,-112.619488 65.02089,-112.619488 2.60084,0 66.32131,110.367099 65.0209,112.619488 z"
     inkscape:transform-center-y="-17.92527"
     transform="translate(-434.69342,36.608802)" /></svg>
